<svg width="324" height="48" viewBox="0 0 324 48" fill="none" xmlns="http://www.w3.org/2000/svg">
<path d="M313.293 11.568C315.341 11.568 317.165 11.984 318.765 12.816C320.397 13.616 321.677 14.864 322.605 16.56C323.533 18.224 323.997 20.368 323.997 22.992V37.776H316.509V24.144C316.509 22.064 316.045 20.528 315.117 19.536C314.221 18.544 312.941 18.048 311.277 18.048C310.093 18.048 309.021 18.304 308.061 18.816C307.133 19.296 306.397 20.048 305.853 21.072C305.341 22.096 305.085 23.408 305.085 25.008V37.776H297.597V11.952H304.749V19.104L303.405 16.944C304.333 15.216 305.661 13.888 307.389 12.96C309.117 12.032 311.085 11.568 313.293 11.568Z" fill="black"/>
<path d="M276.132 47.472C273.7 47.472 271.348 47.168 269.076 46.56C266.836 45.984 264.964 45.104 263.46 43.92L266.436 38.544C267.524 39.44 268.9 40.144 270.564 40.656C272.26 41.2 273.924 41.472 275.556 41.472C278.212 41.472 280.132 40.88 281.316 39.696C282.532 38.512 283.14 36.752 283.14 34.416V30.528L283.62 24.048L283.524 17.52V11.952H290.628V33.456C290.628 38.256 289.38 41.792 286.884 44.064C284.388 46.336 280.804 47.472 276.132 47.472ZM274.98 36.528C272.58 36.528 270.404 36.016 268.452 34.992C266.532 33.936 264.98 32.48 263.796 30.624C262.644 28.736 262.068 26.544 262.068 24.048C262.068 21.52 262.644 19.328 263.796 17.472C264.98 15.584 266.532 14.128 268.452 13.104C270.404 12.08 272.58 11.568 274.98 11.568C277.156 11.568 279.076 12.016 280.74 12.912C282.404 13.776 283.7 15.136 284.628 16.992C285.556 18.816 286.02 21.168 286.02 24.048C286.02 26.896 285.556 29.248 284.628 31.104C283.7 32.928 282.404 34.288 280.74 35.184C279.076 36.08 277.156 36.528 274.98 36.528ZM276.468 30.384C277.78 30.384 278.948 30.128 279.972 29.616C280.996 29.072 281.796 28.32 282.372 27.36C282.948 26.4 283.236 25.296 283.236 24.048C283.236 22.768 282.948 21.664 282.372 20.736C281.796 19.776 280.996 19.04 279.972 18.528C278.948 17.984 277.78 17.712 276.468 17.712C275.156 17.712 273.988 17.984 272.964 18.528C271.94 19.04 271.124 19.776 270.516 20.736C269.94 21.664 269.652 22.768 269.652 24.048C269.652 25.296 269.94 26.4 270.516 27.36C271.124 28.32 271.94 29.072 272.964 29.616C273.988 30.128 275.156 30.384 276.468 30.384Z" fill="black"/>
<path d="M249.55 37.776V11.952H257.038V37.776H249.55ZM253.294 8.352C251.918 8.352 250.798 7.952 249.934 7.152C249.07 6.352 248.638 5.36 248.638 4.176C248.638 2.992 249.07 2 249.934 1.2C250.798 0.400001 251.918 0 253.294 0C254.67 0 255.79 0.384001 256.654 1.152C257.518 1.888 257.95 2.848 257.95 4.032C257.95 5.28 257.518 6.32 256.654 7.152C255.822 7.952 254.702 8.352 253.294 8.352Z" fill="black"/>
<path d="M232.738 38.16C230.53 38.16 228.402 37.904 226.354 37.392C224.338 36.848 222.738 36.176 221.554 35.376L224.05 30C225.234 30.736 226.626 31.344 228.226 31.824C229.858 32.272 231.458 32.496 233.026 32.496C234.754 32.496 235.97 32.288 236.674 31.872C237.41 31.456 237.778 30.88 237.778 30.144C237.778 29.536 237.49 29.088 236.914 28.8C236.37 28.48 235.634 28.24 234.706 28.08C233.778 27.92 232.754 27.76 231.634 27.6C230.546 27.44 229.442 27.232 228.322 26.976C227.202 26.688 226.178 26.272 225.25 25.728C224.322 25.184 223.57 24.448 222.994 23.52C222.45 22.592 222.178 21.392 222.178 19.92C222.178 18.288 222.642 16.848 223.57 15.6C224.53 14.352 225.906 13.376 227.698 12.672C229.49 11.936 231.634 11.568 234.13 11.568C235.89 11.568 237.682 11.76 239.506 12.144C241.33 12.528 242.85 13.088 244.066 13.824L241.57 19.152C240.322 18.416 239.058 17.92 237.778 17.664C236.53 17.376 235.314 17.232 234.13 17.232C232.466 17.232 231.25 17.456 230.482 17.904C229.714 18.352 229.33 18.928 229.33 19.632C229.33 20.272 229.602 20.752 230.146 21.072C230.722 21.392 231.474 21.648 232.402 21.84C233.33 22.032 234.338 22.208 235.426 22.368C236.546 22.496 237.666 22.704 238.786 22.992C239.906 23.28 240.914 23.696 241.81 24.24C242.738 24.752 243.49 25.472 244.066 26.4C244.642 27.296 244.93 28.48 244.93 29.952C244.93 31.552 244.45 32.976 243.49 34.224C242.53 35.44 241.138 36.4 239.314 37.104C237.522 37.808 235.33 38.16 232.738 38.16Z" fill="black"/>
<path d="M206.585 38.16C203.641 38.16 201.049 37.584 198.809 36.432C196.601 35.28 194.889 33.712 193.673 31.728C192.457 29.712 191.849 27.424 191.849 24.864C191.849 22.272 192.441 19.984 193.625 18C194.841 15.984 196.489 14.416 198.569 13.296C200.649 12.144 203.001 11.568 205.625 11.568C208.153 11.568 210.425 12.112 212.441 13.2C214.489 14.256 216.105 15.792 217.289 17.808C218.473 19.792 219.065 22.176 219.065 24.96C219.065 25.248 219.049 25.584 219.017 25.968C218.985 26.32 218.953 26.656 218.921 26.976H197.945V22.608H214.985L212.105 23.904C212.105 22.56 211.833 21.392 211.289 20.4C210.745 19.408 209.993 18.64 209.033 18.096C208.073 17.52 206.953 17.232 205.673 17.232C204.393 17.232 203.257 17.52 202.265 18.096C201.305 18.64 200.553 19.424 200.009 20.448C199.465 21.44 199.193 22.624 199.193 24V25.152C199.193 26.56 199.497 27.808 200.105 28.896C200.745 29.952 201.625 30.768 202.745 31.344C203.897 31.888 205.241 32.16 206.777 32.16C208.153 32.16 209.353 31.952 210.377 31.536C211.433 31.12 212.393 30.496 213.257 29.664L217.241 33.984C216.057 35.328 214.569 36.368 212.777 37.104C210.985 37.808 208.921 38.16 206.585 38.16Z" fill="black"/>
<path d="M154.641 37.776V4.176H169.905C173.553 4.176 176.769 4.88 179.553 6.288C182.337 7.664 184.513 9.6 186.081 12.096C187.649 14.592 188.433 17.552 188.433 20.976C188.433 24.368 187.649 27.328 186.081 29.856C184.513 32.352 182.337 34.304 179.553 35.712C176.769 37.088 173.553 37.776 169.905 37.776H154.641ZM162.417 31.392H169.521C171.761 31.392 173.697 30.976 175.329 30.144C176.993 29.28 178.273 28.064 179.169 26.496C180.097 24.928 180.561 23.088 180.561 20.976C180.561 18.832 180.097 16.992 179.169 15.456C178.273 13.888 176.993 12.688 175.329 11.856C173.697 10.992 171.761 10.56 169.521 10.56H162.417V31.392Z" fill="black"/>
<path d="M126.081 37.776V11.952H133.569V37.776H126.081ZM129.825 8.352C128.449 8.352 127.329 7.952 126.465 7.152C125.601 6.352 125.169 5.36 125.169 4.176C125.169 2.992 125.601 2 126.465 1.2C127.329 0.400001 128.449 0 129.825 0C131.201 0 132.321 0.384001 133.185 1.152C134.049 1.888 134.481 2.848 134.481 4.032C134.481 5.28 134.049 6.32 133.185 7.152C132.353 7.952 131.233 8.352 129.825 8.352Z" fill="black"/>
<path d="M104.402 37.776L93.5539 11.952H101.282L110.306 34.176H106.466L115.826 11.952H123.026L112.13 37.776H104.402Z" fill="black"/>
<path d="M84.0776 37.776V32.736L83.5976 31.632V22.608C83.5976 21.008 83.1016 19.76 82.1096 18.864C81.1496 17.968 79.6616 17.52 77.6456 17.52C76.2696 17.52 74.9096 17.744 73.5656 18.192C72.2536 18.608 71.1336 19.184 70.2056 19.92L67.5176 14.688C68.9256 13.696 70.6216 12.928 72.6056 12.384C74.5896 11.84 76.6056 11.568 78.6536 11.568C82.5896 11.568 85.6456 12.496 87.8216 14.352C89.9976 16.208 91.0856 19.104 91.0856 23.04V37.776H84.0776ZM76.2056 38.16C74.1896 38.16 72.4616 37.824 71.0216 37.152C69.5816 36.448 68.4776 35.504 67.7096 34.32C66.9416 33.136 66.5576 31.808 66.5576 30.336C66.5576 28.8 66.9256 27.456 67.6616 26.304C68.4296 25.152 69.6296 24.256 71.2616 23.616C72.8936 22.944 75.0216 22.608 77.6456 22.608H84.5096V26.976H78.4616C76.7016 26.976 75.4856 27.264 74.8136 27.84C74.1736 28.416 73.8536 29.136 73.8536 30C73.8536 30.96 74.2216 31.728 74.9576 32.304C75.7256 32.848 76.7656 33.12 78.0776 33.12C79.3256 33.12 80.4456 32.832 81.4376 32.256C82.4296 31.648 83.1496 30.768 83.5976 29.616L84.7496 33.072C84.2056 34.736 83.2136 36 81.7736 36.864C80.3336 37.728 78.4776 38.16 76.2056 38.16Z" fill="black"/>
<path d="M49.4408 37.776V11.952H56.5928V19.248L55.5847 17.136C56.3527 15.312 57.5848 13.936 59.2808 13.008C60.9768 12.048 63.0407 11.568 65.4727 11.568V18.48C65.1527 18.448 64.8647 18.432 64.6087 18.432C64.3527 18.4 64.0807 18.384 63.7927 18.384C61.7447 18.384 60.0808 18.976 58.8008 20.16C57.5528 21.312 56.9287 23.12 56.9287 25.584V37.776H49.4408Z" fill="black"/>
<path d="M35.0033 37.776V11.952H42.4912V37.776H35.0033ZM38.7472 8.352C37.3712 8.352 36.2512 7.952 35.3872 7.152C34.5232 6.352 34.0912 5.36 34.0912 4.176C34.0912 2.992 34.5232 2 35.3872 1.2C36.2512 0.400001 37.3712 0 38.7472 0C40.1232 0 41.2432 0.384001 42.1073 1.152C42.9713 1.888 43.4032 2.848 43.4032 4.032C43.4032 5.28 42.9713 6.32 42.1073 7.152C41.2752 7.952 40.1552 8.352 38.7472 8.352Z" fill="black"/>
<path d="M6.96 30.096L6.528 21.12L22.608 4.176H31.248L16.752 19.776L12.432 24.384L6.96 30.096ZM0 37.776V4.176H7.728V37.776H0ZM22.992 37.776L11.04 23.136L16.128 17.616L32.064 37.776H22.992Z" fill="black"/>
</svg>
